<svg xmlns="http://www.w3.org/2000/svg" height="116.11" width="387.01"><path d="M359.71 0H24.2c-.89 0-1.77.03-2.66.03-1.89.06-3.81.18-5.73.53-1.92.32-3.69.89-5.44 1.77-1.71.89-3.28 2.04-4.64 3.4-1.39 1.36-2.51 2.92-3.4 4.64-.89 1.74-1.45 3.55-1.77 5.47-.35 1.89-.47 3.81-.53 5.73 0 .86-.03 1.74-.03 2.63v67.71c0 .89.03 1.77.03 2.66.06 1.92.18 3.84.53 5.73.32 1.92.89 3.72 1.77 5.47.89 1.68 2.01 3.28 3.4 4.61 1.36 1.36 2.92 2.51 4.64 3.37 1.74.92 3.52 1.48 5.44 1.83 1.92.32 3.84.44 5.73.5.89 0 1.77.03 2.66.03h338.61c.86 0 1.77-.03 2.63-.03 1.92-.06 3.84-.18 5.73-.5 1.92-.35 3.72-.92 5.47-1.83 1.71-.86 3.28-2.01 4.64-3.37 1.36-1.33 2.51-2.92 3.4-4.61.89-1.74 1.45-3.55 1.77-5.47.35-1.89.47-3.81.53-5.73v-2.66c.03-1.03.03-2.07.03-3.13V27.33c0-1.06 0-2.1-.03-3.13v-2.63c-.06-1.92-.18-3.84-.53-5.73a18.94 18.94 0 00-1.77-5.47c-.89-1.71-2.04-3.28-3.4-4.64a18.746 18.746 0 00-4.64-3.4c-1.74-.89-3.55-1.45-5.47-1.77-1.89-.35-3.81-.47-5.73-.53-.86 0-1.77-.03-2.63-.03h-3.1z" fill="#2b2b2b"/><path d="M24.2 113.59c-.89 0-1.71 0-2.6-.03-1.6-.03-3.49-.12-5.35-.47-1.74-.3-3.31-.83-4.76-1.57-1.48-.74-2.84-1.74-3.99-2.9a15.517 15.517 0 01-2.92-4.02c-.74-1.45-1.24-2.98-1.57-4.76-.35-1.92-.44-3.87-.47-5.35-.03-.62-.03-2.63-.03-2.63V24.18s.03-1.98.03-2.57c.03-1.51.12-3.46.47-5.35.32-1.77.83-3.31 1.57-4.79.77-1.48 1.74-2.84 2.9-3.99 1.18-1.18 2.54-2.19 4.02-2.92 1.48-.77 3.04-1.27 4.76-1.57 1.92-.35 3.87-.44 5.38-.47l2.57-.03h338.57l2.63.03c1.48.03 3.43.12 5.32.47 1.74.3 3.31.8 4.79 1.57 1.48.74 2.84 1.74 3.99 2.92 1.18 1.15 2.16 2.51 2.95 4.02.74 1.45 1.24 3.01 1.51 4.73.35 1.8.44 3.66.5 5.41.03.8.03 1.68.03 2.54v67.68c0 .92 0 1.77-.03 2.66-.06 1.68-.15 3.55-.47 5.29-.3 1.77-.8 3.31-1.57 4.79-.77 1.51-1.74 2.84-2.9 3.99a16.04 16.04 0 01-4.02 2.92c-1.48.77-3.01 1.24-4.79 1.57-1.83.35-3.72.44-5.35.47-.83.03-1.71.03-2.57.03H24.2z" fill="#2b2b2b"/><path d="M131.82 73.65l-6.44-17.4-6.41 17.4zm-22.45 12.91l13.35-34.98h5.35l13.35 34.98h-4.93l-3.19-8.98h-15.75l-3.19 8.98zm41.12-3.93v13.91h-4.31V60.32h4.31v3.96c.91-1.56 2.05-2.71 3.43-3.46 1.4-.77 3.05-1.15 4.96-1.15 3.19 0 5.78 1.27 7.77 3.81 2.01 2.52 3.01 5.85 3.01 9.99 0 4.12-1 7.44-3.01 9.99-1.99 2.52-4.58 3.78-7.77 3.78-1.91 0-3.56-.37-4.96-1.12-1.38-.77-2.52-1.94-3.43-3.49zm14.68-9.16c0-3.17-.66-5.66-1.98-7.47-1.28-1.81-3.06-2.72-5.35-2.72-2.28 0-4.09.91-5.41 2.72-1.3 1.81-1.95 4.3-1.95 7.47s.65 5.66 1.95 7.47c1.32 1.79 3.12 2.69 5.41 2.69 2.28 0 4.07-.9 5.35-2.69 1.32-1.81 1.98-4.3 1.98-7.47zm15.81 9.16v13.91h-4.34V60.32h4.34v3.96c.91-1.56 2.04-2.71 3.4-3.46 1.4-.77 3.06-1.15 4.99-1.15 3.17 0 5.75 1.27 7.74 3.81 2.01 2.52 3.01 5.85 3.01 9.99 0 4.12-1 7.44-3.01 9.99-1.99 2.52-4.57 3.78-7.74 3.78-1.93 0-3.59-.37-4.99-1.12-1.36-.77-2.5-1.94-3.4-3.49zm14.65-9.16c0-3.17-.66-5.66-1.98-7.47-1.28-1.81-3.06-2.72-5.35-2.72-2.28 0-4.09.91-5.41 2.72-1.28 1.81-1.92 4.3-1.92 7.47s.64 5.66 1.92 7.47c1.32 1.79 3.12 2.69 5.41 2.69 2.28 0 4.07-.9 5.35-2.69 1.32-1.81 1.98-4.3 1.98-7.47zm35.51 8.1v-9.39h-7.71v-3.9h12.41v15.04a20.8 20.8 0 01-6.06 2.95c-2.19.65-4.53.97-7.03.97-5.48 0-9.76-1.6-12.85-4.79-3.07-3.19-4.61-7.64-4.61-13.35s1.54-10.16 4.61-13.35c3.09-3.21 7.38-4.82 12.85-4.82 2.28 0 4.44.29 6.47.86 2.07.55 3.97 1.38 5.7 2.48v5.05c-1.75-1.5-3.61-2.62-5.58-3.37-1.97-.75-4.04-1.12-6.2-1.12-4.27 0-7.49 1.19-9.66 3.57-2.13 2.4-3.19 5.97-3.19 10.69s1.06 8.28 3.19 10.66c2.17 2.38 5.39 3.57 9.66 3.57 1.67 0 3.17-.14 4.49-.41 1.3-.28 2.47-.73 3.51-1.34zm29.22-8.22h-4.28c-3.49 0-5.9.4-7.24 1.21-1.34.79-2.01 2.15-2.01 4.08 0 1.54.5 2.76 1.51 3.66 1 .89 2.37 1.33 4.11 1.33 2.4 0 4.32-.85 5.76-2.54 1.44-1.69 2.16-3.95 2.16-6.77v-.97zm4.31-1.77v14.98h-4.31v-3.99c-.98 1.6-2.21 2.78-3.66 3.55-1.48.75-3.28 1.12-5.41 1.12-2.68 0-4.82-.75-6.41-2.25-1.58-1.52-2.36-3.55-2.36-6.09 0-2.93.98-5.16 2.95-6.68 1.99-1.5 4.94-2.25 8.86-2.25h6.03v-.41c0-1.99-.65-3.53-1.95-4.61-1.3-1.08-3.13-1.62-5.49-1.62-1.5 0-2.95.18-4.37.53-1.42.35-2.79.9-4.11 1.62v-3.99c1.58-.61 3.11-1.06 4.61-1.36 1.48-.32 2.91-.47 4.31-.47 3.8 0 6.64.98 8.51 2.95 1.87 1.99 2.8 4.97 2.8 8.97zm8.89 14.98V50.11h4.31v36.45zm13.33 0V50.11h4.31v36.45zm35.65-14.21v2.13h-19.82c.18 2.95 1.06 5.22 2.66 6.79 1.61 1.54 3.85 2.3 6.71 2.3 1.65 0 3.25-.2 4.79-.59 1.58-.41 3.12-1.02 4.64-1.83v4.08c-1.54.65-3.12 1.15-4.76 1.51-1.61.33-3.26.5-4.93.5-4.18 0-7.49-1.22-9.96-3.66-2.44-2.42-3.66-5.71-3.66-9.87 0-4.31 1.16-7.72 3.49-10.22 2.32-2.54 5.46-3.81 9.39-3.81 3.53 0 6.31 1.14 8.36 3.43 2.06 2.26 3.09 5.34 3.09 9.24zm-19.7-1.24h15.39c-.04-2.36-.71-4.25-2.01-5.67-1.28-1.4-2.98-2.1-5.11-2.1-2.4 0-4.33.68-5.79 2.04-1.44 1.36-2.26 3.27-2.48 5.73zm41.8-11.2l.03 4.43c-.49-.28-1.02-.48-1.6-.62-.58-.14-1.19-.21-1.86-.21-2.44 0-4.32.8-5.64 2.39-1.3 1.58-1.95 3.85-1.95 6.82v13.83h-4.31V60.32h4.31v4.08c.91-1.6 2.09-2.78 3.55-3.55 1.46-.79 3.22-1.18 5.29-1.18.3 0 .63.03 1 .09.35.02.75.07 1.18.15zm27 .41l-11.52 28.66c-1.22 3.13-2.41 5.18-3.57 6.14-1.16.95-2.71 1.42-4.64 1.42h-3.46v-3.6h2.54c1.18 0 2.11-.29 2.78-.86.65-.55 1.37-1.88 2.16-3.99l.8-1.95-10.64-25.82h4.58l8.21 20.5 8.18-20.5zM109.1 39.29V21.24h11.4v2.04h-8.98v5.35h8.6v2.07h-8.6v6.53h9.22v2.07H109.1zm20.39-9.63l-5.61-8.42h2.63l4.49 6.71 4.49-6.71h2.63l-5.79 8.66 6.17 9.39h-2.63l-5.05-7.68-5.14 7.68h-2.63zm17.72-6.41h-3.07v6.77h3.07c1.14 0 2.03-.29 2.66-.86.61-.59.92-1.44.92-2.54 0-1.06-.31-1.89-.92-2.48-.63-.59-1.52-.89-2.66-.89zm-5.49 16.04V21.24h5.49c2.03 0 3.56.45 4.61 1.36 1.02.93 1.54 2.26 1.54 4.02 0 1.79-.51 3.14-1.54 4.05-1.04.91-2.58 1.36-4.61 1.36h-3.07v7.27h-2.42zm14.92 0V21.24h2.45v15.98h8.8v2.07zM176.9 22.9c-1.77 0-3.19.66-4.25 1.98-1.02 1.32-1.54 3.12-1.54 5.41 0 2.26.51 4.07 1.54 5.41 1.06 1.32 2.48 1.98 4.25 1.98s3.17-.66 4.19-1.98c1.04-1.34 1.57-3.14 1.57-5.41 0-2.28-.52-4.09-1.57-5.41-1.02-1.33-2.42-1.98-4.19-1.98zm0-1.98c2.52 0 4.54.85 6.06 2.54 1.52 1.69 2.27 3.97 2.27 6.82 0 2.86-.76 5.13-2.27 6.82-1.52 1.69-3.54 2.54-6.06 2.54-2.54 0-4.58-.85-6.12-2.54-1.52-1.69-2.27-3.97-2.27-6.82 0-2.86.76-5.13 2.27-6.82 1.54-1.7 3.58-2.54 6.12-2.54zm20.71 9.89c.53.18 1.04.56 1.54 1.15.49.57.99 1.37 1.51 2.39l2.48 4.93h-2.63l-2.3-4.64c-.61-1.2-1.19-2-1.74-2.39-.57-.39-1.34-.59-2.3-.59h-2.66v7.62h-2.45V21.24h5.52c2.07 0 3.61.43 4.64 1.3 1 .85 1.51 2.15 1.51 3.9 0 1.14-.27 2.09-.8 2.84-.55.74-1.31 1.26-2.32 1.53zm-3.04-7.56h-3.07v6.41h3.07c1.18 0 2.07-.28 2.66-.83.61-.55.92-1.35.92-2.39 0-1.06-.31-1.86-.92-2.39-.59-.53-1.48-.8-2.66-.8zm11.7 16.04V21.24h11.4v2.04h-8.95v5.35h8.6v2.07h-8.6v6.53h9.19v2.07h-11.64zm23.51 0V21.24h2.45v18.05zm4.82-16.01v-2.04h15.27v2.04h-6.41v16.01h-2.45V23.28zm32.82-.38c-1.77 0-3.18.66-4.22 1.98-1.04 1.32-1.57 3.12-1.57 5.41 0 2.26.52 4.07 1.57 5.41 1.04 1.32 2.45 1.98 4.22 1.98 1.77 0 3.18-.66 4.22-1.98 1.02-1.34 1.54-3.14 1.54-5.41 0-2.28-.51-4.09-1.54-5.41-1.04-1.33-2.45-1.98-4.22-1.98zm0-1.98c2.54 0 4.57.85 6.09 2.54 1.52 1.69 2.27 3.97 2.27 6.82 0 2.86-.76 5.13-2.27 6.82-1.51 1.69-3.55 2.54-6.09 2.54s-4.57-.85-6.09-2.54c-1.52-1.69-2.27-3.97-2.27-6.82 0-2.86.76-5.13 2.27-6.82 1.52-1.7 3.55-2.54 6.09-2.54zm12.17 18.37V21.24h3.28l8.01 15.1v-15.1h2.39v18.05h-3.31l-8.01-15.1v15.1z" class="st2" fill="#fff"/><path d="M78.2 21.3H46.06c-15.16 0-20.71 5.52-20.71 20.68v32.14c0 15.16 5.55 20.71 20.71 20.71H78.2c15.13 0 20.68-5.55 20.68-20.71V41.98c0-15.16-5.52-20.68-20.68-20.68z" class="st2" fill="#c80f2e"/><path d="M56.73 65.67l-.89 1.98h-1.98l4.22-9.6h1.71l4.22 9.6h-2.04l-.86-1.98zm.7-1.74h2.95L58.9 60.5zm31.32-5.88h1.95v9.6h-1.95zm-7.65 7.86h5.35v1.74h-7.27v-9.6h7.06v1.77H81.1v1.95h3.55v1.77H81.1zm-5.53-7.86h2.04l-3.34 9.63h-1.65l-2.19-6.32-2.19 6.32h-1.6l-3.37-9.63h2.1l2.13 6.62 2.16-6.62h1.6l2.19 6.62zm-24.66 0h1.95v5.44c0 2.75-1.51 4.34-4.17 4.34-2.6 0-4.11-1.57-4.11-4.28v-5.49h1.95v5.44c0 1.62.77 2.48 2.19 2.48s2.19-.86 2.19-2.42zm-10.99 0h1.95v9.63h-1.95v-3.93h-4.4v3.93h-1.95v-9.63h1.95v3.87h4.4zm22.21-12.23c-6.77 0-12.23-5.49-12.23-12.23h1.71c0 5.79 4.73 10.49 10.52 10.49 5.79 0 10.52-4.7 10.52-10.49h1.71c0 6.73-5.49 12.23-12.23 12.23z" fill-rule="evenodd" clip-rule="evenodd" fill="#fff"/></svg>