<svg xmlns="http://www.w3.org/2000/svg" width="176" height="45"><path d="M17.648.114A11.526 11.526 0 0015.968 0c-1.565 0-3.022.24-4.37.73a11.173 11.173 0 00-3.563 2.047A11.015 11.015 0 005.503 5.98c-.655 1.25-1.082 2.644-1.272 4.185L4.046 11.7H.63l-.42 3.17c-.083.57.025 1.002.337 1.3.318.291.725.513 1.228.647l1.59.367L0 45h3.29c1.182 0 2.086-.285 2.71-.843.629-.565 1.113-1.345 1.462-2.327l1.406-4.528 2.43-20.093h5.135l.731-5.51h-5.477l.159-1.275c.21-1.769.706-3.005 1.501-3.722.789-.71 1.851-1.065 3.194-1.065.4 0 .801-.064 1.196-.203.4-.14.649-.438.731-.888L19.2.495a8.792 8.792 0 00-1.552-.38m14.629 25.521a23.958 23.958 0 01-1.055 3.223 15.39 15.39 0 01-1.35 2.63c-.49.748-1.012 1.34-1.559 1.777-.553.43-1.118.648-1.702.648-.377 0-.723-.081-1.043-.256-.314-.168-.59-.436-.823-.804-.233-.368-.415-.848-.553-1.446-.138-.592-.207-1.315-.207-2.17 0-1.495.207-2.91.634-4.232.415-1.315 1.012-2.474 1.784-3.472a8.702 8.702 0 012.77-2.362c1.075-.58 2.262-.873 3.57-.873h.49l-.956 7.337zm5.46-12.523a30.084 30.084 0 00-3.864-.256c-2.607 0-5 .474-7.18 1.428-2.187.96-4.072 2.244-5.655 3.864-1.59 1.615-2.827 3.504-3.712 5.66C16.44 25.966 16 28.241 16 30.641c0 1.64.207 3.055.616 4.258.414 1.203.96 2.188 1.652 2.967a6.708 6.708 0 002.368 1.74c.892.38 1.822.573 2.783.573 1.615 0 3.091-.43 4.442-1.29 1.35-.861 2.563-2.045 3.643-3.541v1.913c0 .362.038.692.12.998.075.311.213.573.408.791.201.225.465.4.798.524.34.13.754.193 1.25.193h4.278L41.6 14.03a19.123 19.123 0 00-3.864-.916zm22.203-.243c-.816.064-1.613.326-2.392.786-.778.46-1.538 1.112-2.278 1.95-.735.843-1.431 1.846-2.084 3.015v-3.093c0-.888-.232-1.533-.697-1.923-.458-.396-1.104-.594-1.927-.594h-4.117L43.2 40.18h7.827L52.464 28c.414-1.75.904-3.181 1.481-4.3.578-1.118 1.218-1.955 1.934-2.51.709-.563 1.487-.857 2.34-.895.848-.032 1.758.16 2.737.581l1.444-7.52c-.822-.383-1.644-.55-2.46-.486m13.299 6.913c1.023-1.05 2.206-1.574 3.564-1.574.771 0 1.338.194 1.685.587.354.393.527.812.527 1.255 0 .444-.096.856-.302 1.23-.2.375-.592.731-1.17 1.062-.58.331-1.403.643-2.458.937-1.055.287-2.425.562-4.11.818.489-1.824 1.248-3.266 2.264-4.315m9.816 12.19a1.619 1.619 0 00-.765-.194c-.406 0-.766.063-1.081.181a4.596 4.596 0 00-.914.456c-.289.194-.591.387-.907.593-.315.207-.675.4-1.067.587a6.758 6.758 0 01-1.39.463c-.527.118-1.151.18-1.872.18-1.524 0-2.682-.418-3.467-1.255-.778-.836-1.19-2.16-1.222-3.971 3.126-.306 5.725-.731 7.79-1.28 2.065-.544 3.711-1.212 4.934-1.999 1.222-.78 2.077-1.674 2.573-2.673.489-.999.733-2.104.733-3.316 0-.818-.2-1.636-.605-2.46-.405-.818-.99-1.555-1.769-2.21-.772-.657-1.724-1.194-2.862-1.606-1.132-.406-2.425-.612-3.885-.612-1.48 0-2.876.2-4.182.6a14.284 14.284 0 00-3.615 1.68 14.515 14.515 0 00-2.965 2.572 16.03 16.03 0 00-2.232 3.279 17.391 17.391 0 00-1.396 3.803 17.807 17.807 0 00-.489 4.147c0 1.686.27 3.228.804 4.608.54 1.38 1.293 2.567 2.27 3.548.979.98 2.143 1.742 3.494 2.279 1.357.537 2.843.806 4.457.806 1.3 0 2.503-.107 3.603-.306 1.1-.207 2.135-.525 3.113-.962a15.733 15.733 0 002.843-1.668 27.62 27.62 0 002.837-2.391l-2.11-2.38a2.385 2.385 0 00-.656-.5M99.472 12.01l.025-.232c.119-1.078.344-2.025.676-2.828a4.771 4.771 0 011.527-1.995c.689-.52 1.577-.916 2.673-1.185 1.095-.263 2.478-.395 4.155-.395.395 0 .776-.063 1.152-.182.382-.12.607-.401.695-.847l.77-3.882c-.545-.157-1.209-.27-1.978-.351A22.848 22.848 0 00106.939 0c-2.347 0-4.4.301-6.171.897-1.772.602-3.267 1.43-4.482 2.483a11.652 11.652 0 00-2.86 3.707 13.798 13.798 0 00-1.32 4.535l-.05.388h-3.443l-.356 3.237c-.07.552.056.96.369 1.223.32.263.757.47 1.327.602l1.433.338L88 45h3.236c1.158 0 2.053-.276 2.666-.834.613-.558 1.095-1.323 1.44-2.302l1.383-4.478 2.384-19.925h4.494l.67-5.45h-4.8zm9.68.847L107.42 26.96l-1.654 13.27h6.421l3.328-27.372h-6.363zm25.993.013c-.816.064-1.614.326-2.398.786-.779.46-1.539 1.112-2.273 1.95-.741.843-1.438 1.846-2.085 3.015v-3.093c0-.888-.232-1.533-.697-1.923-.464-.396-1.105-.594-1.933-.594h-4.12L118.4 40.18h7.823L127.667 28c.408-1.75.904-3.181 1.476-4.3.577-1.118 1.224-1.955 1.934-2.51.709-.563 1.494-.857 2.341-.895.848-.032 1.765.16 2.744.581l1.438-7.52c-.822-.383-1.639-.55-2.455-.486m12.777 5.33c.651 0 1.23.074 1.733.23.497.15.947.324 1.347.524.393.193.76.367 1.108.523.341.15.69.23 1.044.23.348 0 .631-.068.844-.205.212-.137.438-.361.689-.667l2.113-2.811c-.934-.885-2.12-1.633-3.556-2.244-1.437-.617-3.067-.923-4.896-.923-1.836 0-3.434.274-4.813.817-1.372.548-2.519 1.265-3.446 2.163a8.907 8.907 0 00-2.088 3.08 9.543 9.543 0 00-.696 3.577c0 .985.142 1.827.432 2.525.296.704.677 1.29 1.153 1.764.477.48 1.012.879 1.61 1.19.6.318 1.212.593 1.85.83.631.243 1.25.454 1.849.654a10.97 10.97 0 011.61.66c.477.25.857.543 1.147.886.29.343.438.773.438 1.303 0 .68-.283 1.271-.844 1.776-.567.505-1.43.754-2.59.754-.83 0-1.494-.106-2.01-.305a8.21 8.21 0 01-1.32-.667c-.367-.237-.709-.461-1.031-.667a2.086 2.086 0 00-1.134-.305c-.477 0-.876.1-1.198.293a2.99 2.99 0 00-.863.81l-2.004 2.911c.387.461.889.891 1.501 1.29.619.4 1.301.748 2.049 1.035.747.293 1.546.524 2.39.692.844.168 1.7.256 2.564.256 1.81 0 3.447-.262 4.903-.78 1.449-.523 2.686-1.221 3.71-2.094a9.02 9.02 0 002.345-3.098 8.861 8.861 0 00.825-3.765c0-.941-.148-1.746-.438-2.431a5.953 5.953 0 00-1.147-1.764 7.044 7.044 0 00-1.63-1.253 17.565 17.565 0 00-1.862-.904 29.22 29.22 0 00-1.861-.717 11.429 11.429 0 01-1.624-.704c-.477-.256-.857-.543-1.147-.867a1.708 1.708 0 01-.438-1.178c0-.717.258-1.296.78-1.752.522-.448 1.385-.673 2.602-.673m19.896 13.325l.112-.943.206-1.68 1.276-10.63h5.922l.666-5.534h-5.921l.965-7.916h-4.284c-.872 0-1.45.42-1.737 1.255l-2.224 6.604-4.009.84-.355 3.16c-.087.522-.012.916.23 1.184.237.273.536.407.89.407h2.124l-1.357 11.069c-.1.872-.18 1.573-.243 2.101-.057.535-.1.962-.125 1.28-.025.325-.037.573-.037.745v.446c.031.974.218 1.847.547 2.611a5.84 5.84 0 001.377 1.968 5.963 5.963 0 002.105 1.255c.821.286 1.737.433 2.758.433 1.226 0 2.447-.198 3.655-.586a11.865 11.865 0 003.393-1.764l-1.737-3.84c-.118-.242-.23-.42-.343-.535-.111-.115-.286-.172-.522-.172a.858.858 0 00-.412.095 3.926 3.926 0 00-.38.21 2.74 2.74 0 01-.472.204 2.052 2.052 0 01-.68.096c-.492 0-.852-.172-1.083-.51-.23-.344-.348-.764-.348-1.267v-.147c0-.076.018-.223.043-.439" fill="#FFF" fill-rule="evenodd"/></svg>